<svg width="80" height="80" viewBox="0 0 80 80" fill="none" xmlns="http://www.w3.org/2000/svg">
<path d="M69.9 20.6719L42.4 5.62506C41.6652 5.21906 40.8395 5.0061 40 5.0061C39.1605 5.0061 38.3348 5.21906 37.6 5.62506L10.1 20.6782C9.31465 21.1079 8.65907 21.7406 8.20172 22.5101C7.74438 23.2797 7.50203 24.158 7.5 25.0532V54.9407C7.50203 55.8359 7.74438 56.7141 8.20172 57.4837C8.65907 58.2533 9.31465 58.886 10.1 59.3157L37.6 74.3688C38.3348 74.7748 39.1605 74.9878 40 74.9878C40.8395 74.9878 41.6652 74.7748 42.4 74.3688L69.9 59.3157C70.6853 58.886 71.3409 58.2533 71.7983 57.4837C72.2556 56.7141 72.498 55.8359 72.5 54.9407V25.0563C72.4996 24.1595 72.2581 23.2793 71.8007 22.5079C71.3432 21.7365 70.6867 21.1024 69.9 20.6719ZM40 10.0001L65.1062 23.7501L55.8031 28.8438L30.6938 15.0938L40 10.0001ZM40 37.5001L14.8938 23.7501L25.4875 17.9501L50.5938 31.7001L40 37.5001ZM12.5 28.1251L37.5 41.8063V68.6157L12.5 54.9438V28.1251ZM67.5 54.9313L42.5 68.6157V41.8188L52.5 36.3469V47.5001C52.5 48.1631 52.7634 48.799 53.2322 49.2678C53.7011 49.7367 54.337 50.0001 55 50.0001C55.663 50.0001 56.2989 49.7367 56.7678 49.2678C57.2366 48.799 57.5 48.1631 57.5 47.5001V33.6094L67.5 28.1251V54.9282V54.9313Z" fill="black"/>
</svg>
