<svg width="20" height="20" viewBox="0 0 20 20" fill="none" xmlns="http://www.w3.org/2000/svg">
<path d="M17.6431 4.22891C16.7358 3.32435 15.5075 2.81556 14.2264 2.81366C12.9453 2.81175 11.7155 3.3169 10.8056 4.21875L9.99932 4.96719L9.19307 4.21875C8.28346 3.31142 7.05067 2.80259 5.7659 2.8042C4.48112 2.80581 3.24962 3.31773 2.34228 4.22734C1.43495 5.13695 0.926127 6.36974 0.927738 7.65451C0.92935 8.93928 1.44127 10.1708 2.35088 11.0781L9.33135 18.1602C9.41858 18.2487 9.52256 18.3191 9.63724 18.3671C9.75191 18.4151 9.87499 18.4398 9.99932 18.4398C10.1236 18.4398 10.2467 18.4151 10.3614 18.3671C10.4761 18.3191 10.5801 18.2487 10.6673 18.1602L17.6431 11.0828C18.0931 10.633 18.45 10.0989 18.6936 9.51113C18.9371 8.92333 19.0625 8.2933 19.0625 7.65703C19.0625 7.02077 18.9371 6.39073 18.6936 5.80293C18.45 5.21512 18.0931 4.68106 17.6431 4.23125V4.22891ZM16.3149 9.75937L9.99932 16.1641L3.68135 9.75391C3.12651 9.19676 2.81535 8.44226 2.81617 7.65596C2.81698 6.86967 3.1297 6.11581 3.68569 5.55981C4.24169 5.00382 4.99554 4.6911 5.78184 4.69029C6.56813 4.68947 7.32264 5.00063 7.87978 5.55547C7.8876 5.56328 7.89541 5.57109 7.904 5.57812L9.36025 6.93437C9.53378 7.09605 9.76214 7.18594 9.99932 7.18594C10.2365 7.18594 10.4648 7.09605 10.6384 6.93437L12.0946 5.57812C12.1032 5.57109 12.111 5.56328 12.1188 5.55547C12.3949 5.2801 12.7224 5.0618 13.0828 4.91303C13.4432 4.76426 13.8294 4.68793 14.2193 4.6884C14.6092 4.68887 14.9952 4.76614 15.3552 4.91578C15.7153 5.06542 16.0423 5.28451 16.3177 5.56055C16.593 5.83658 16.8113 6.16415 16.9601 6.52454C17.1089 6.88494 17.1852 7.27111 17.1847 7.66101C17.1843 8.05091 17.107 8.4369 16.9574 8.79693C16.8077 9.15697 16.5886 9.48401 16.3126 9.75937H16.3149Z" fill="white"/>
</svg>
